<?xml version="1.0" standalone="no"?><!DOCTYPE svg PUBLIC "-//W3C//DTD SVG 1.1//EN" "http://www.w3.org/Graphics/SVG/1.1/DTD/svg11.dtd"><svg t="1669535667701" class="icon" viewBox="0 0 1024 1024" version="1.1" xmlns="http://www.w3.org/2000/svg" p-id="3842" width="32" height="32" xmlns:xlink="http://www.w3.org/1999/xlink"><path d="M512 1024C229.2224 1024 0 794.7776 0 512S229.2224 0 512 0s512 229.2224 512 512-229.2224 512-512 512zM256 204.8a51.2 51.2 0 0 0-51.2 51.2v153.6a51.2 51.2 0 0 0 51.2 51.2h204.8V256a51.2 51.2 0 0 0-51.2-51.2H256z m512 0h-153.6a51.2 51.2 0 0 0-51.2 51.2v204.8h204.8a51.2 51.2 0 0 0 51.2-51.2V256a51.2 51.2 0 0 0-51.2-51.2zM256 819.2h153.6a51.2 51.2 0 0 0 51.2-51.2v-204.8H256a51.2 51.2 0 0 0-51.2 51.2v153.6a51.2 51.2 0 0 0 51.2 51.2z m512 0a51.2 51.2 0 0 0 51.2-51.2v-153.6a51.2 51.2 0 0 0-51.2-51.2h-204.8v204.8a51.2 51.2 0 0 0 51.2 51.2h153.6z" p-id="3843" fill="#ffffff"></path></svg>